<?xml version="1.0" standalone="no"?>
<!DOCTYPE svg PUBLIC "-//W3C//DTD SVG 20010904//EN"
 "http://www.w3.org/TR/2001/REC-SVG-20010904/DTD/svg10.dtd">
<svg version="1.0" xmlns="http://www.w3.org/2000/svg"
 width="512.000000pt" height="512.000000pt" viewBox="0 0 512.000000 512.000000"
 preserveAspectRatio="xMidYMid meet">
<metadata>
Created by potrace 1.11, written by Peter Selinger 2001-2013
</metadata>
<g transform="translate(0.000000,512.000000) scale(0.100000,-0.100000)"
fill="#000000" stroke="none">
<path d="M2445 4153 c-128 -13 -203 -26 -306 -54 -389 -104 -744 -374 -951
-724 -209 -352 -274 -773 -182 -1175 108 -474 443 -885 886 -1089 291 -134
619 -178 933 -125 426 71 817 326 1064 692 115 171 222 442 246 622 2 14 6 45
10 70 11 70 13 257 4 345 -28 264 -123 524 -269 740 -68 99 -92 128 -195 230
-115 115 -137 133 -248 206 -202 133 -443 223 -686 254 -58 8 -257 13 -306 8z
m351 -338 c133 -25 285 -82 414 -156 69 -39 216 -157 277 -223 185 -198 296
-430 340 -711 4 -22 6 -103 6 -180 -1 -337 -129 -642 -372 -886 -306 -305
-726 -432 -1161 -349 -142 27 -324 105 -462 198 -85 57 -228 189 -273 251 -16
23 -44 62 -62 85 -68 92 -161 305 -189 433 -79 367 3 749 224 1048 64 86 205
221 294 283 141 96 348 184 493 208 157 25 330 25 471 -1z"/>
<path d="M2402 2878 c3 -471 3 -483 23 -493 16 -8 310 -185 375 -226 141 -88
435 -257 440 -254 7 4 82 126 105 170 10 18 -11 33 -253 178 -146 86 -266 157
-268 157 -1 0 -42 24 -91 54 l-88 54 -2 404 c-1 221 -3 411 -3 421 0 15 -13
17 -120 17 l-120 0 2 -482z"/>
</g>
</svg>
